<?xml version="1.0" encoding="UTF-8"?>
<!DOCTYPE svg PUBLIC "-//W3C//DTD SVG 1.1//EN" "http://www.w3.org/Graphics/SVG/1.1/DTD/svg11.dtd">
<!-- Creator: CorelDRAW 2019 (64-Bit) -->
<svg xmlns="http://www.w3.org/2000/svg" xml:space="preserve" width="0.832614in" height="0.424429in" version="1.1" style="shape-rendering:geometricPrecision; text-rendering:geometricPrecision; image-rendering:optimizeQuality; fill-rule:evenodd; clip-rule:evenodd"
viewBox="0 0 832.61 424.43"
 xmlns:xlink="http://www.w3.org/1999/xlink">
 <defs>
  <style type="text/css">
   <![CDATA[
    .fil1 {fill:#00A859;fill-rule:nonzero}
    .fil0 {fill:#0649AF;fill-rule:nonzero}
    .fil2 {fill:#FF6600;fill-rule:nonzero}
   ]]>
  </style>
 </defs>
 <g id="Layer_x0020_1">
  <metadata id="CorelCorpID_0Corel-Layer"/>
  <polygon class="fil0" points="446.19,424.43 446.19,3.86 546.58,3.86 546.58,424.43 "/>
  <polygon class="fil1" points="571.24,424.43 571.24,3.86 830.24,3.86 830.24,90.59 668.67,90.59 668.67,166.63 807.07,166.63 807.07,252.76 668.67,252.76 668.67,335.92 832.61,335.92 832.61,424.43 "/>
  <path class="fil2" d="M154.07 293.61l108.14 0 -53.39 -128.88 -54.75 128.88zm-154.07 130.81l209.98 -424.42 6.2 0 205.33 424.42 -102.81 0 -26.07 -59.89 -167.06 0 -26.65 59.89 -98.93 0z"/>
 </g>
</svg>
