<?xml version="1.0" encoding="UTF-8"?>
<!DOCTYPE svg PUBLIC "-//W3C//DTD SVG 1.1//EN" "http://www.w3.org/Graphics/SVG/1.1/DTD/svg11.dtd">
<!-- Creator: CorelDRAW 2019 (64-Bit) -->
<svg xmlns="http://www.w3.org/2000/svg" xml:space="preserve" width="6.63092in" height="0.317673in" version="1.1" style="shape-rendering:geometricPrecision; text-rendering:geometricPrecision; image-rendering:optimizeQuality; fill-rule:evenodd; clip-rule:evenodd"
viewBox="0 0 1647.43 78.92"
 xmlns:xlink="http://www.w3.org/1999/xlink">
 <defs>
  <style type="text/css">
   <![CDATA[
    .fil0 {fill:#0649AF;fill-rule:nonzero}
   ]]>
  </style>
 </defs>
 <g id="Layer_x0020_1">
  <metadata id="CorelCorpID_0Corel-Layer"/>
  <path class="fil0" d="M27.56 52.72l19.34 0 -9.55 -23.05 -9.79 23.05zm-27.56 23.4l37.56 -75.91 1.11 0 36.72 75.91 -18.39 0 -4.66 -10.71 -29.88 0 -4.77 10.71 -17.69 0z"/>
  <polygon id="1" class="fil0" points="533.05,76.12 533.05,2.5 550.62,2.5 550.62,76.12 "/>
  <polygon id="2" class="fil0" points="1397.24,76.12 1397.24,2.5 1442.58,2.5 1442.58,17.68 1414.29,17.68 1414.29,30.99 1438.52,30.99 1438.52,46.07 1414.29,46.07 1414.29,60.62 1443,60.62 1443,76.12 "/>
  <polygon id="3" class="fil0" points="80.9,76.12 80.9,2.5 98.47,2.5 98.47,60.31 127.17,60.31 127.17,76.12 "/>
  <polygon id="4" class="fil0" points="135.79,76.12 135.79,2.5 153.36,2.5 153.36,60.31 182.06,60.31 182.06,76.12 "/>
  <polygon id="5" class="fil0" points="190.88,76.12 190.88,2.5 208.46,2.5 208.46,76.12 "/>
  <path id="6" class="fil0" d="M241.63 52.72l19.34 0 -9.55 -23.05 -9.79 23.05zm-27.56 23.4l37.56 -75.91 1.11 0 36.72 75.91 -18.39 0 -4.66 -10.71 -29.88 0 -4.77 10.71 -17.69 0z"/>
  <polygon id="7" class="fil0" points="294.97,76.12 294.97,0.1 296.65,0.1 342.49,43.07 342.49,2.5 358.72,2.5 358.72,78.92 357.19,78.92 311.19,35.96 311.19,76.12 "/>
  <path id="8" class="fil0" d="M429.93 25.79c-3.19,-3.28 -6.41,-5.7 -9.67,-7.3 -3.27,-1.58 -6.71,-2.37 -10.29,-2.37 -6.22,0 -11.32,2.15 -15.27,6.45 -3.97,4.3 -5.95,9.83 -5.95,16.55 0,6.74 1.96,12.2 5.89,16.38 3.92,4.18 9.03,6.27 15.34,6.27 3.73,0 7.44,-0.78 11.14,-2.34 3.71,-1.56 7.4,-3.9 11.09,-7.02l-1.13 19.55c-3.15,2.13 -6.59,3.76 -10.33,4.87 -3.74,1.13 -7.63,1.68 -11.66,1.68 -4.33,0 -8.47,-0.68 -12.46,-2.03 -3.97,-1.35 -7.64,-3.36 -10.99,-6 -4.75,-3.73 -8.37,-8.27 -10.9,-13.64 -2.51,-5.36 -3.78,-11.21 -3.78,-17.54 0,-5.46 0.94,-10.57 2.79,-15.34 1.87,-4.77 4.58,-8.99 8.13,-12.65 3.59,-3.66 7.73,-6.45 12.44,-8.41 4.7,-1.94 9.65,-2.91 14.87,-2.91 4.14,0 8.08,0.57 11.84,1.73 3.76,1.14 7.35,2.89 10.76,5.23l-1.87 18.82z"/>
  <polygon id="9" class="fil0" points="443.64,76.12 443.64,2.5 488.98,2.5 488.98,17.68 460.69,17.68 460.69,30.99 484.92,30.99 484.92,46.07 460.69,46.07 460.69,60.62 489.39,60.62 489.39,76.12 "/>
  <polygon id="10" class="fil0" points="567.78,76.12 567.78,0.1 569.46,0.1 615.3,43.07 615.3,2.5 631.52,2.5 631.52,78.92 630,78.92 584,35.96 584,76.12 "/>
  <polygon id="11" class="fil0" points="663.33,76.12 663.33,17.89 639.93,17.89 639.93,2.5 704.19,2.5 704.19,17.89 680.9,17.89 680.9,76.12 "/>
  <polygon id="12" class="fil0" points="712.63,76.12 712.63,2.5 757.97,2.5 757.97,17.68 729.69,17.68 729.69,30.99 753.91,30.99 753.91,46.07 729.69,46.07 729.69,60.62 758.39,60.62 758.39,76.12 "/>
  <path id="13" class="fil0" d="M791.73 15.91l-2.89 0 0 20.38 3.71 0c4.44,0 7.82,-0.9 10.16,-2.69 2.34,-1.79 3.5,-4.37 3.5,-7.71 0,-3.52 -1.13,-6.05 -3.4,-7.63 -2.27,-1.58 -5.96,-2.36 -11.07,-2.36zm-19.95 60.21l0 -73.62 18.93 0c6.07,0 10.76,0.4 14.11,1.2 3.35,0.8 6.29,2.11 8.87,3.99 2.74,1.96 4.87,4.38 6.38,7.28 1.51,2.89 2.25,5.94 2.25,9.15 0,4.65 -1.18,8.7 -3.54,12.18 -2.36,3.48 -5.75,6.2 -10.19,8.18l22.46 31.65 -20.07 0 -19.65 -28.91 -2.5 0 0 28.91 -17.05 0z"/>
  <polygon id="14" class="fil0" points="838.04,76.12 838.04,0.1 839.72,0.1 885.56,43.07 885.56,2.5 901.78,2.5 901.78,78.92 900.26,78.92 854.26,35.96 854.26,76.12 "/>
  <path id="15" class="fil0" d="M934.63 52.72l19.34 0 -9.55 -23.05 -9.79 23.05zm-27.56 23.4l37.56 -75.91 1.11 0 36.72 75.91 -18.39 0 -4.66 -10.71 -29.88 0 -4.77 10.71 -17.69 0z"/>
  <polygon id="16" class="fil0" points="995.37,76.12 995.37,17.89 971.97,17.89 971.97,2.5 1036.24,2.5 1036.24,17.89 1012.94,17.89 1012.94,76.12 "/>
  <polygon id="17" class="fil0" points="1044.88,76.12 1044.88,2.5 1062.46,2.5 1062.46,76.12 "/>
  <path id="18" class="fil0" d="M1093.13 39.31c0,6.4 1.87,11.77 5.62,16.08 3.74,4.32 8.35,6.48 13.83,6.48 5.51,0 10.14,-2.15 13.87,-6.45 3.73,-4.32 5.58,-9.69 5.58,-16.12 0,-6.46 -1.85,-11.87 -5.58,-16.19 -3.73,-4.32 -8.35,-6.48 -13.87,-6.48 -5.48,0 -10.09,2.17 -13.83,6.48 -3.74,4.32 -5.62,9.72 -5.62,16.19zm-18.09 0c0,-5.46 0.94,-10.55 2.83,-15.3 1.87,-4.77 4.64,-9.01 8.3,-12.77 3.45,-3.59 7.47,-6.34 12.04,-8.25 4.56,-1.92 9.36,-2.88 14.37,-2.88 5.01,0 9.81,0.97 14.4,2.89 4.59,1.92 8.67,4.71 12.22,8.34 3.59,3.62 6.31,7.8 8.14,12.57 1.85,4.75 2.77,9.9 2.77,15.41 0,4.61 -0.64,8.94 -1.92,13 -1.3,4.06 -3.21,7.76 -5.75,11.13 -3.59,4.77 -7.99,8.47 -13.22,11.11 -5.23,2.65 -10.78,3.97 -16.64,3.97 -4.97,0 -9.74,-0.97 -14.3,-2.89 -4.56,-1.92 -8.6,-4.71 -12.11,-8.34 -3.66,-3.74 -6.43,-7.99 -8.3,-12.72 -1.89,-4.71 -2.83,-9.81 -2.83,-15.25z"/>
  <polygon id="19" class="fil0" points="1162.37,76.12 1162.37,0.1 1164.05,0.1 1209.89,43.07 1209.89,2.5 1226.11,2.5 1226.11,78.92 1224.59,78.92 1178.59,35.96 1178.59,76.12 "/>
  <path id="20" class="fil0" d="M1258.96 52.72l19.34 0 -9.55 -23.05 -9.79 23.05zm-27.56 23.4l37.56 -75.91 1.11 0 36.72 75.91 -18.39 0 -4.66 -10.71 -29.88 0 -4.77 10.71 -17.69 0z"/>
  <polygon id="21" class="fil0" points="1312.3,76.12 1312.3,2.5 1329.87,2.5 1329.87,60.31 1358.58,60.31 1358.58,76.12 "/>
  <polygon id="22" class="fil0" points="1448.8,76.12 1475.25,38.04 1449.17,2.5 1470.62,2.5 1485.8,23.52 1500.07,2.5 1519.2,2.5 1495.49,36.52 1524.5,76.12 1502.87,76.12 1484.99,51.14 1468.04,76.12 "/>
  <polygon id="23" class="fil0" points="1531.49,76.12 1531.49,2.5 1549.06,2.5 1549.06,76.12 "/>
  <polygon id="24" class="fil0" points="1560.19,76.12 1575.47,0.1 1576.74,0.1 1604.52,48.04 1630.72,0.1 1632.04,0.1 1647.43,76.12 1630.72,76.12 1624.48,42.5 1604.73,78.82 1603.55,78.82 1582.34,41.99 1575.87,76.12 "/>
 </g>
</svg>
