<?xml version="1.0" encoding="UTF-8"?>
<!DOCTYPE svg PUBLIC "-//W3C//DTD SVG 1.1//EN" "http://www.w3.org/Graphics/SVG/1.1/DTD/svg11.dtd">
<!-- Creator: CorelDRAW 2019 (64-Bit) -->
<svg xmlns="http://www.w3.org/2000/svg" xml:space="preserve" width="9.4109in" height="0.450858in" version="1.1" style="shape-rendering:geometricPrecision; text-rendering:geometricPrecision; image-rendering:optimizeQuality; fill-rule:evenodd; clip-rule:evenodd"
viewBox="0 0 76277.68 3654.32"
 xmlns:xlink="http://www.w3.org/1999/xlink">
 <defs>
  <style type="text/css">
   <![CDATA[
    .fil3 {fill:#00A859;fill-rule:nonzero}
    .fil1 {fill:#000F52;fill-rule:nonzero}
    .fil2 {fill:#0649AF;fill-rule:nonzero}
    .fil0 {fill:#FF6600;fill-rule:nonzero}
   ]]>
  </style>
 </defs>
 <g id="Layer_x0020_1">
  <metadata id="CorelCorpID_0Corel-Layer"/>
  <path class="fil0" d="M1275.87 2441.02l895.5 0 -442.12 -1067.24 -453.38 1067.24zm-1275.87 1083.3l1738.86 -3514.68 51.38 0 1700.38 3514.68 -851.4 0 -215.84 -495.92 -1383.41 0 -220.69 495.92 -819.27 0z"/>
  <polygon id="1" class="fil1" points="3745.77,3524.32 3745.77,115.55 4559.46,115.55 4559.46,2792.48 5888.3,2792.48 5888.3,3524.32 "/>
  <polygon id="2" class="fil1" points="6287.09,3524.32 6287.09,115.55 7100.77,115.55 7100.77,2792.48 8429.62,2792.48 8429.62,3524.32 "/>
  <polygon id="3" class="fil1" points="8838.04,3524.32 8838.04,115.55 9651.73,115.55 9651.73,3524.32 "/>
  <path id="4" class="fil1" d="M11187.61 2441.02l895.5 0 -442.12 -1067.24 -453.38 1067.24zm-1275.87 1083.3l1738.86 -3514.68 51.38 0 1700.38 3514.68 -851.4 0 -215.84 -495.92 -1383.41 0 -220.69 495.92 -819.27 0z"/>
  <polygon id="5" class="fil1" points="13657.51,3524.32 13657.51,4.82 13735.37,4.82 15857.79,1994.05 15857.79,115.55 16608.9,115.55 16608.9,3654.32 16538.28,3654.32 14408.61,1665.05 14408.61,3524.32 "/>
  <path id="6" class="fil1" d="M19906.14 1194.02c-147.65,-151.67 -296.93,-264 -447.77,-337.84 -151.67,-73.01 -310.55,-109.93 -476.65,-109.93 -288.09,0 -524,99.5 -706.98,298.52 -183.74,198.99 -275.23,454.98 -275.23,766.33 0,312.15 90.69,564.91 272.83,758.29 181.35,193.41 418.06,290.51 710.17,290.51 172.51,0 344.25,-36.12 515.96,-108.34 171.71,-72.21 342.65,-180.55 513.57,-325.01l-52.17 905.17c-146.02,98.7 -304.9,174.14 -478.24,225.48 -173.34,52.17 -353.09,77.83 -540.05,77.83 -200.59,0 -392.37,-31.27 -576.94,-93.88 -183.77,-62.58 -353.89,-155.66 -508.75,-277.65 -219.86,-172.51 -387.58,-382.77 -504.73,-631.51 -116.38,-247.94 -174.93,-519.18 -174.93,-812.09 0,-252.76 43.3,-489.47 129.17,-710.13 86.67,-220.69 211.85,-416.46 376.35,-585.78 166.09,-169.32 357.88,-298.52 576.14,-389.21 217.47,-89.86 446.97,-134.79 688.5,-134.79 191.78,0 373.93,26.49 548.06,80.25 174.14,52.94 340.23,133.99 498.31,242.33l-86.64 871.44z"/>
  <polygon id="7" class="fil1" points="20540.84,3524.32 20540.84,115.55 22640.04,115.55 22640.04,818.47 21330.47,818.47 21330.47,1434.76 22452.28,1434.76 22452.28,2132.89 21330.47,2132.89 21330.47,2806.94 22659.28,2806.94 22659.28,3524.32 "/>
  <polygon id="8" class="fil1" points="26288.74,3524.32 26288.74,4.82 26366.6,4.82 28489.03,1994.05 28489.03,115.55 29240.14,115.55 29240.14,3654.32 29169.52,3654.32 27039.85,1665.05 27039.85,3524.32 "/>
  <polygon id="9" class="fil1" points="30712.61,3524.32 30712.61,828.11 29629.32,828.11 29629.32,115.55 32604.77,115.55 32604.77,828.11 31526.3,828.11 31526.3,3524.32 "/>
  <polygon id="10" class="fil1" points="32995.55,3524.32 32995.55,115.55 35094.74,115.55 35094.74,818.47 33785.17,818.47 33785.17,1434.76 34906.98,1434.76 34906.98,2132.89 33785.17,2132.89 33785.17,2806.94 35113.99,2806.94 35113.99,3524.32 "/>
  <path id="11" class="fil1" d="M36657.91 736.62l-133.99 0 0 943.69 171.71 0c205.44,0 361.9,-41.74 470.23,-124.39 108.34,-82.65 162.11,-202.22 162.11,-357.08 0,-162.9 -52.17,-280.05 -157.29,-353.09 -105.11,-73.01 -276.06,-109.13 -512.77,-109.13zm-923.62 2787.7l0 -3408.77 876.26 0c280.88,0 498.35,18.44 653.21,55.36 154.86,36.92 291.28,97.9 410.85,184.57 126.78,90.66 225.48,203.01 295.3,337.01 69.82,134.02 104.32,275.26 104.32,423.71 0,215.04 -54.57,402.81 -163.7,564.11 -109.13,161.28 -266.42,287.26 -471.83,378.74l1039.96 1465.26 -929.23 0 -909.96 -1338.48 -115.55 0 0 1338.48 -789.62 0z"/>
  <polygon id="12" class="fil1" points="38802.04,3524.32 38802.04,4.82 38879.9,4.82 41002.32,1994.05 41002.32,115.55 41753.43,115.55 41753.43,3654.32 41682.81,3654.32 39553.14,1665.05 39553.14,3524.32 "/>
  <path id="13" class="fil1" d="M43274.06 2441.02l895.5 0 -442.12 -1067.24 -453.38 1067.24zm-1275.87 1083.3l1738.86 -3514.68 51.38 0 1700.38 3514.68 -851.4 0 -215.84 -495.92 -1383.41 0 -220.69 495.92 -819.27 0z"/>
  <polygon id="14" class="fil1" points="46086.61,3524.32 46086.61,828.11 45003.32,828.11 45003.32,115.55 47978.77,115.55 47978.77,828.11 46900.3,828.11 46900.3,3524.32 "/>
  <polygon id="15" class="fil1" points="48379.19,3524.32 48379.19,115.55 49192.87,115.55 49192.87,3524.32 "/>
  <path id="16" class="fil1" d="M50613.2 1819.92c0,296.13 86.67,544.87 259.97,744.69 173.34,199.79 386.79,300.09 640.35,300.09 255.19,0 469.43,-99.5 641.97,-298.49 172.51,-199.82 258.38,-448.56 258.38,-746.29 0,-299.29 -85.87,-549.66 -258.38,-749.48 -172.54,-199.79 -386.79,-300.09 -641.97,-300.09 -253.56,0 -467.01,100.29 -640.35,300.09 -173.31,199.82 -259.97,450.19 -259.97,749.48zm-837.74 0c0,-252.76 43.3,-488.68 130.77,-708.54 86.67,-220.66 215.08,-417.26 384.39,-591.4 159.68,-166.09 345.85,-293.7 557.7,-381.97 211.02,-89.06 433.31,-133.19 665.2,-133.19 231.93,0 454.18,44.93 666.83,133.99 212.65,89.06 401.21,218.27 565.74,385.99 166.09,167.69 292.08,361.1 377.12,581.76 85.87,219.86 128.41,458.2 128.41,713.36 0,213.45 -29.71,414.07 -89.06,601.83 -60.18,187.79 -148.45,359.5 -266.42,515.19 -166.09,220.66 -369.94,392.37 -612.27,514.36 -242.33,122.76 -499.11,183.74 -770.35,183.74 -230.3,0 -450.96,-44.93 -662.01,-133.99 -211.02,-89.09 -398.02,-218.27 -560.89,-385.99 -169.32,-173.31 -297.72,-369.91 -384.39,-588.97 -87.47,-218.27 -130.77,-454.18 -130.77,-706.18z"/>
  <polygon id="17" class="fil1" points="53818.93,3524.32 53818.93,4.82 53896.79,4.82 56019.21,1994.05 56019.21,115.55 56770.32,115.55 56770.32,3654.32 56699.7,3654.32 54570.03,1665.05 54570.03,3524.32 "/>
  <path id="18" class="fil1" d="M58290.95 2441.02l895.5 0 -442.12 -1067.24 -453.38 1067.24zm-1275.87 1083.3l1738.86 -3514.68 51.38 0 1700.38 3514.68 -851.4 0 -215.84 -495.92 -1383.41 0 -220.69 495.92 -819.27 0z"/>
  <polygon id="19" class="fil1" points="60760.85,3524.32 60760.85,115.55 61574.53,115.55 61574.53,2792.48 62903.38,2792.48 62903.38,3524.32 "/>
  <polygon id="20" class="fil1" points="67080.87,3524.32 68305.4,1761.36 67097.72,115.55 68091.15,115.55 68794.08,1088.91 69454.5,115.55 70340.39,115.55 69242.64,1690.74 70585.94,3524.32 69584.5,3524.32 68756.36,2368.01 67971.59,3524.32 "/>
  <polygon id="21" class="fil1" points="70909.32,3524.32 70909.32,115.55 71723.01,115.55 71723.01,3524.32 "/>
  <polygon id="22" class="fil1" points="72238.17,3524.32 72945.94,4.82 73004.5,4.82 74290.81,2224.35 75504.11,4.82 75565.09,4.82 76277.68,3524.32 75504.11,3524.32 75215.22,1967.57 74300.45,3649.5 74245.88,3649.5 73263.71,1944.3 72964.39,3524.32 "/>
  <polygon id="23" class="fil2" points="24680.65,3524.32 24680.65,115.55 25494.33,115.55 25494.33,3524.32 "/>
  <polygon id="24" class="fil3" points="64693.59,3524.32 64693.59,115.55 66792.78,115.55 66792.78,818.47 65483.21,818.47 65483.21,1434.76 66605.02,1434.76 66605.02,2132.89 65483.21,2132.89 65483.21,2806.94 66812.03,2806.94 66812.03,3524.32 "/>
 </g>
</svg>
