<?xml version="1.0" encoding="UTF-8"?>
<!DOCTYPE svg PUBLIC "-//W3C//DTD SVG 1.1//EN" "http://www.w3.org/Graphics/SVG/1.1/DTD/svg11.dtd">
<!-- Creator: CorelDRAW 2019 (64-Bit) -->
<svg xmlns="http://www.w3.org/2000/svg" xml:space="preserve" width="1.11033in" height="0.440236in" version="1.1" style="shape-rendering:geometricPrecision; text-rendering:geometricPrecision; image-rendering:optimizeQuality; fill-rule:evenodd; clip-rule:evenodd"
viewBox="0 0 1110.34 440.24"
 xmlns:xlink="http://www.w3.org/1999/xlink">
 <defs>
  <style type="text/css">
   <![CDATA[
    .fil2 {fill:#EF7F1A;fill-rule:nonzero}
    .fil1 {fill:#009846;fill-rule:nonzero}
    .fil0 {fill:#000F52;fill-rule:nonzero}
   ]]>
  </style>
 </defs>
 <g id="Layer_x0020_1">
  <metadata id="CorelCorpID_0Corel-Layer"/>
  <g id="_2874199464064">
   <polygon class="fil0" points="477.94,440.24 305.02,13.43 404.96,13.43 485.34,236.37 571.75,0 579.44,0 666.44,236.37 746.03,13.43 838.09,13.43 666.44,440.24 660.21,440.24 571.75,203.87 485.34,440.24 "/>
   <polygon class="fil1" points="844.43,440.24 844.43,12.37 1107.92,12.37 1107.92,100.61 943.54,100.61 943.54,177.96 1084.35,177.96 1084.35,265.59 943.54,265.59 943.54,350.19 1110.34,350.19 1110.34,440.24 "/>
   <path class="fil2" d="M154.07 309.42l108.14 0 -53.39 -128.88 -54.75 128.88zm-154.07 130.82l209.98 -424.42 6.2 0 205.33 424.42 -102.81 0 -26.07 -59.89 -167.06 0 -26.65 59.89 -98.93 0z"/>
  </g>
 </g>
</svg>
